<?xml version="1.0" encoding="UTF-8"?>
<svg id="Layer_1" xmlns="http://www.w3.org/2000/svg" version="1.1" viewBox="0 0 4500 4500">
  <!-- Generator: Adobe Illustrator 30.2.1, SVG Export Plug-In . SVG Version: 2.1.1 Build 1)  -->
  <defs>
    <style>
      .st0 {
        stroke-width: 34px;
      }

      .st0, .st1, .st2 {
        fill: none;
        stroke: #211915;
        stroke-miterlimit: 10;
      }

      .st1 {
        stroke-width: 16px;
      }

      .st2 {
        stroke-width: 47px;
      }
    </style>
  </defs>
  <path class="st2" d="M382.6,2878.5c-142.6-70-227.2-248.6-146.7-397.6,60.2-111.3,152-211.4,268.1-269.1,119-59.1,236.8-109.7,363.2-151.4,69.5-22.9,240.7-15.9,321,7.8,26.1-37.9,66.5-51.6,112.6-50,116.2,4,233.3-.2,339-54.9,31.1-75.7,129.1-75.1,204.7-92.9-9.4-85.4,28.1-349.7,163.1-305.5,94.8-224.9,160.9-401.4,426.7-451.9,106.5-20.2,204.3-14.4,301.6,37.2,62,32.9,134.3,56.2,187.1,103.9,35,31.6,62.2,60.2,106.7,75.4,64.5,22,104.4,82.6,108.6,150.8,3.2,51.2-7.4,99.3-12.1,149.6l-19.2,207c-4.5,48.9-21.7,93.3-54.4,132.9,41.7,10.1,80.4,27.5,90.3,71.1,84.2,56.6,180.9,80.1,282.4,71.4,41.4-3.5,78.8,13.9,102.6,45,99.6-26.6,175.8-23.9,274.1-7.2l341,206c72.6,43.9,79.3,107.4,130.3,172.1,91.2,111.7-124.4,265-218.1,349.3M2696.9,2353.6l182.7-271.5c11.6-17.2,5.4-40.6-13.1-50.1-69.3-35.4-73.7-94.6-190.4-102.4-61.9-4.1-127.5-83.7-165.3-132-90.3-115.1-138.3-57.1-193.7-170.8-17.5-36-56.8-49.3-91-27.8-86.6,54.4-146.3,88.3-173.3,189.3-9.8,36.6-23.5,70.5-46.3,99.6-9.2,11.7-28,3.9-26.2-10.8,11-92.3,55.2-145,31.7-250.5-2.8-12.8-21-31.6-32.4-32.2-10.1-.5-31.1,9.4-37.9,18.3-75.3,99.8-72.3,252-44.4,368.8h0c15.3,4.5,17,25.4,2.7,32.4l-.9.4c-19.1,77.2-64.7,313.9-1.1,368.2,59.9,48.1,151,97.7,111.8,186.7l48,68.4,129.4,1,48.3-70.3c-50.7-19.4-102.6-42.7-134-88.7-6.3-9.2,4.6-20.5,14.1-14.5l133,84.1,39.4-45.8c-29.7-13-67.9-57.6-88.7-96.5-3.6-6.7,4.8-13.3,10.5-8.3,32.1,28.4,69.6,77,94.5,67.6,8.3-3.1,20.6-18.2,24.9-28.3,31.4-73.8,60.3-148.2,114-208.9,35.8-22.1,90-2.7,128.3,12.7h.1c0,.1,128.9,51.9,128.9,51.9M452.5,2805.7c21.9-169.1,78.1-380,254.1-435.9h-.2q0,.1,0,.1c5.6.6,7.2-7.5,1.7-9-88.9-23.3-206.1,33.2-298,80.4-9.6,4.9-18.5-7.6-10.8-15.1,71.2-68.8,169.6-107.5,267.3-112.3,74.4-3.7,150.4,94.7,305.9,11l68.9-37.1M1702.2,2122.6,1856.6,2365.8c-41.9-103.2-89.4-202.3-147.5-297.7,40.8,105.4,85.7,201.9,147.5,297.7ZM1899.2,2550.4c.9-15.7,4.1-31.8,11.3-43.9,4.2-7,14.9-1.1,11.3,6.3-5,10.2-8.4,21.3-7.4,31.6,2.1,21.5,45.7,22.2,57.7,10.5,14.2-13.8,15.6-44,1.1-60.7-53.4-61.4-121.9-104.7-200.2-130.8-89-29.7-177.4-52.9-269.1-72.7-107.8-23.2-142.6,83.5-214.2,132.8l-60.2,41.4c-1.2.8-2.6,1-3.9.4-14.1-5.8-31-7.5-49.8-9.4l-449.4-47.8c-1.4-.2-2.9.4-3.8,1.6-63.8,81.8-94.7,174.4-93.7,278.2,0,1.4.7,2.7,1.8,3.4,35,24,72.8,38.5,115.5,49.2,156,38.6,314.1,58.6,470.3,71.2,3.7.3,6-4.1,3.5-6.9s-.2-.3-.4-.4c-5.8-6.7,2.4-16.4,10-11.8,51.4,31.6,100.2,50.3,160.2,45.5l181.4-14.6c89-7.2,176.7,13.2,266,17.4.6,0,1.3,0,1.9-.3l17.4-7.4c1.3-.6,2.9-.4,4,.4,8.7,6.1,28,14.5,30.3,7.9l6.5-19.5c1.1-3.2,5.3-3.9,7.4-1.2,6.1,8.3,15.6,19,22.9,17.5,7.1-1.4,19.2-8.7,26.9-14.7s1.8-6.6-1.6-7.4l-206.2-48.4c-51-12-101.1-22.4-148.9-38.6-5.1-1.7-2.9-9.3,2.3-8.1,50.7,12,100.5,21.4,152.8,32.1l178.5,36.5c2.8.6,5.4-1.8,5-4.7-1.8-13-1.7-24.7,1-34s7-4,8.1.2c3.5,13.7,6.6,25.9,12.2,32.4,12.7,15,67.7,5.3,79-30.5,2.7-8.6-3.1-26.8-8.4-34.8s-2.4-2-4-1.9c-27.9,3.3-56.5,4.1-82.6-4.8l-240.1-80.7c-45.5-15.3-89.3-30.8-128.2-53.5-4.5-2.6-1.1-9.5,3.7-7.5,57.4,24.1,111.3,40.9,169.6,58.9l179.3,55.3c2.5.8,5.1-.9,5.4-3.5,2.3-18.2,5.5-31.2,13.4-42,2.5-3.4,7.8-1.3,7.3,2.8l-5,39.9c-.1,1.1.1,2.2.8,3,12.9,17,63.4,24.2,72.7-.5,13.7-36.1-24.3-89.2-59.9-96.9-146.8-31.8-135.4-71.9-261.8-107.3-60.6-17-118.4-35.6-167.9-73.4M2617.8,2783.1l-126.7,83.9c-3.6,2.4-2.2,7.9,2.1,8.3,83,8.3,156.7-8.3,231.2-30.8,102.1-31,200.4-46.1,308.3-48.8,312.6-7.9,522.7-15,805.7-90.7,5.4-1.5,3.9-9.6-1.7-8.9-61.9,7.3-120.1,16.7-179.5,22.7-12.1,1.2-15.6-16.2-3.9-19.7l208.2-62.5c23.6-7.1,30.3-37.1,12.2-53.7-104.7-95.4-212.2-154.1-360.8-149.5-76.1,2.4-149.6,5.7-225.5,15.6l-329,42.7c-.4,0-.7,0-1.1,0-35.3-3.7-86.6-17-126.8-35.5l-159.6-73.4c-51.1-23.5-103.8-23-156.7.1-105.7,46.1-193.1,124.3-258.6,219.3l-76.2,116.5c-1.5,2.1,9.4-.1,12,0,26.2,1.1,45.2,9.5,57,32.8,5.6,11,21.1,11.8,27.9,1.5,102-154.7,94.8-97,218.3-194.6,5.1-4.1,9.9-8.4,14.7-12.4s10.3,2.7,6,6.8c-46.4,44.3-100.8,74.6-150.7,116.2-33.3,27.7-52.6,76.5-79.5,113-1.1,1.5-1.2,3.5-.2,5.1,5.2,8,19.2,19.4,27.6,22.3s21.1-2.1,30.5-8.6c76.1-52.7,121.9-59.9,197.8-100,4.9-2.6,9.3,4.3,4.9,7.7-61.1,46.3-142.2,63.6-190.1,114.8-1.6,1.7-1.6,4.5,0,6.2,81.3,87.8,166.4-22.7,262.4-46.4M2244.5,2782.6c-3.7-32.5-29.4-59.6-58.5-63.8-16.2-2.4-27.2,35-25.6,52.8,1.3,14.7,21.8,32.3,39.1,36.3,12.9,3,46.8-9.4,45-25.3Z"/>
  <path class="st0" d="M2094.1,2309.6l-8.2-111.7M2112.7,2328.9c33.4,5.2,62.9,13.8,91.7-9.2,27.6-23.9,1.8-49.8-25.2-59.3-20.6-8.1-51.6-10.3-68.5,4.5-17.2,17.7-28.7,58.9,4.6,64.6M2216.3,2291.7l-121.5-250.3s-32-56.9-27.4-50.5h0c28.8,17.1,45.9,31.2,68.2,51.6,59,53.7,122,97.5,186.2,136.7h0"/>
  <path class="st1" d="M1708.8,2582.2"/>
  <path class="st1" d="M1694.2,2530.4"/>
  <path class="st1" d="M1686.9,2804.7"/>
</svg>